<svg width="21" height="22" viewBox="0 0 21 22" fill="none" xmlns="http://www.w3.org/2000/svg">
<path d="M7 9.50164H4.66667V11.6131H7V9.50164ZM11.6667 9.50164H9.33333V11.6131H11.6667V9.50164ZM16.3333 9.50164H14V11.6131H16.3333V9.50164ZM18.6667 2.11148H17.5V0H15.1667V2.11148H5.83333V0H3.5V2.11148H2.33333C1.03833 2.11148 0.0116667 3.06164 0.0116667 4.22295L0 19.0033C0 20.1646 1.03833 21.1148 2.33333 21.1148H18.6667C19.95 21.1148 21 20.1646 21 19.0033V4.22295C21 3.06164 19.95 2.11148 18.6667 2.11148ZM18.6667 19.0033H2.33333V7.39017H18.6667V19.0033Z" fill="#5B6574"/>
</svg>
